PathFileType	4	(X/Y/Z)	C:\Users\Graham\Documents\MATLAB\MOtoNMS_v2_2\MyData\ElaboratedData\S1\17-05-18\dynamicElaborations\rightStSt\\ET2\ET2.trc
DataRate	CameraRate	NumFrames	NumMarkers	Units	OrigDataRate	DataStartFrame
100	100	7	29	mm	100	106
Frame#	Time	V_Sacral			R_ASIS			L_ASIS			R_Knee_Lat			R_Thigh_Upper			R_Thigh_Front			R_Thigh_Rear			L_Knee_Lat			L_Thigh_Upper			L_Thigh_Front			L_Thigh_Rear			R_Ankle_Lat			R_Shank_Upper			R_Shank_Front			R_Shank_Rear			L_Ankle_Lat			L_Shank_Upper			L_Shank_Front			L_Shank_Rear			R_Heel			R_MTP1			R_MTP5			L_Heel			L_MTP1			L_MTP5			Clavicle			C7			R_Acromium			L_Acromium		
		X1	Y1	Z1	X2	Y2	Z2	X3	Y3	Z3	X4	Y4	Z4	X5	Y5	Z5	X6	Y6	Z6	X7	Y7	Z7	X8	Y8	Z8	X9	Y9	Z9	X10	Y10	Z10	X11	Y11	Z11	X12	Y12	Z12	X13	Y13	Z13	X14	Y14	Z14	X15	Y15	Z15	X16	Y16	Z16	X17	Y17	Z17	X18	Y18	Z18	X19	Y19	Z19	X20	Y20	Z20	X21	Y21	Z21	X22	Y22	Z22	X23	Y23	Z23	X24	Y24	Z24	X25	Y25	Z25	X26	Y26	Z26	X27	Y27	Z27	X28	Y28	Z28	X29	Y29	Z29	

170	1.690000	-62.972321	1006.968508	29.914584	253.195687	1003.336907	151.594817	241.231363	1009.367399	-102.835884	52.985937	519.273353	167.151430	219.457013	835.453262	187.290954	218.197804	713.964835	146.504089	157.490651	717.618956	199.033189	320.130959	537.108217	-122.233795	296.794515	861.746091	-117.581377	334.396278	753.389139	-61.339135	310.963488	737.379227	-141.843889	-98.538675	114.815441	139.938652	32.018407	305.137096	133.155262	-30.164677	214.395603	69.804983	-36.916793	203.991413	150.456088	455.351333	116.769276	-110.514686	433.675101	357.280568	-93.649649	451.570843	241.745456	-42.640681	439.423760	236.741648	-122.938537	-180.539530	69.819283	84.706105	43.197770	58.159503	39.863632	40.296686	49.388272	118.026552	405.720720	49.707640	-57.310135	619.470738	140.744239	-41.947427	603.747997	124.041581	-130.111755	274.210372	1439.862734	37.167510	134.618624	1551.234337	46.945813	234.237056	1465.562460	235.478025	203.209622	1485.964906	-169.205610	
171	1.700000	-61.820434	1005.514381	28.233174	254.043475	1002.115274	150.784394	242.965508	1008.006780	-103.687404	51.260027	518.390438	166.464543	219.430748	834.113691	186.669860	218.039330	712.538664	146.178757	157.144029	716.446641	198.463723	323.772936	536.237017	-121.791784	299.358202	861.570834	-118.415733	336.987299	753.363154	-61.897844	314.127621	737.307510	-142.478308	-106.653024	116.154016	140.305547	27.320467	304.313620	133.278984	-36.586633	214.585671	70.217111	-43.554793	204.498479	150.790077	452.307390	114.327012	-108.486669	434.761238	354.518273	-91.510091	450.145806	238.676651	-40.373734	438.689484	233.885895	-120.782994	-189.227312	72.234651	84.942600	34.026252	58.053209	40.045302	30.979588	49.144267	117.874571	400.741151	49.057953	-55.901707	615.970979	134.805711	-38.633651	600.458274	119.090296	-126.991241	275.061856	1438.603443	35.434802	135.338883	1549.892351	44.929317	234.967864	1464.522902	233.678581	204.197258	1484.388058	-171.097429	
172	1.710000	-60.512437	1004.103329	26.371289	255.053495	1001.003061	150.014691	244.966174	1006.714585	-104.504397	50.003510	517.533420	165.858208	219.615239	832.859738	186.071546	218.211018	711.188152	145.897082	157.076436	715.337262	197.868409	327.407224	535.371619	-121.339182	302.167079	861.193473	-119.311250	339.695895	753.112383	-62.478077	317.381442	737.014622	-143.159197	-114.571469	117.749818	140.674526	22.899402	303.567380	133.382719	-42.759778	214.923986	70.619174	-49.966620	205.181656	151.093794	448.470436	111.898625	-106.732862	435.482646	351.634769	-89.312873	448.007789	235.414611	-38.213160	437.381607	230.962568	-118.747835	-197.748719	75.093375	85.176039	24.940301	57.987014	40.269129	21.692825	48.906340	117.676638	394.425418	48.977013	-54.991677	611.528139	127.656704	-35.245181	596.279519	113.163820	-123.864171	275.978078	1437.438699	33.642787	136.112351	1548.640446	42.788546	235.698209	1463.597838	231.777315	205.314936	1482.857741	-173.076403	
173	1.720000	-59.051335	1002.747145	24.317669	256.223514	1000.040213	149.307370	247.206018	1005.515609	-105.265171	49.326105	516.720086	165.383132	220.060497	831.707463	185.473728	218.748572	709.932696	145.616351	157.340888	714.301439	197.221473	330.979221	534.582733	-120.958381	305.190786	860.608866	-120.177420	342.470235	752.620041	-62.998460	320.651851	736.478076	-143.800415	-122.278950	119.650539	141.041835	18.772822	302.936799	133.462748	-48.666462	215.461811	70.987813	-56.125098	206.077105	151.365645	444.140840	109.617005	-105.361286	435.922742	348.813402	-87.232171	445.375897	232.187228	-36.309802	435.690233	228.165254	-116.978666	-206.086244	78.457697	85.407068	15.953664	57.961752	40.536889	12.418650	48.670776	117.433563	387.238879	49.493590	-54.598496	606.436676	119.729556	-32.003610	591.496401	106.529202	-120.920797	276.962617	1436.393936	31.806627	136.950804	1547.505863	40.527993	236.407333	1462.801169	229.796264	206.572240	1481.374125	-175.133719	
174	1.730000	-57.439691	1001.472255	22.075160	257.543040	999.271316	148.671795	249.638801	1004.447376	-105.959144	49.322056	515.962950	165.048108	220.810034	830.686518	184.847253	219.689042	708.802291	145.295743	157.991565	713.356345	196.498788	334.462535	533.949016	-120.735060	308.380525	859.876212	-120.919065	345.268577	751.930268	-63.398492	323.889750	735.752321	-144.335954	-129.750384	121.906288	141.403178	14.975524	302.460312	133.528073	-54.266966	216.250331	71.303932	-61.991444	207.225554	151.613157	439.520039	107.567936	-104.433551	436.156155	346.196882	-85.440493	442.445083	229.185951	-34.787851	433.761227	225.635802	-115.592149	-214.212131	82.392245	85.634414	7.075512	57.971375	40.845562	3.131511	48.430194	117.147931	379.590524	50.537609	-54.663927	600.938756	111.483837	-29.153455	586.308414	99.479801	-118.364294	278.017317	1435.498066	29.941465	137.861610	1546.516421	38.162127	237.086838	1462.151508	227.764575	207.969354	1479.947520	-177.255940	
175	1.740000	-55.678028	1000.316507	19.662849	258.993570	998.739444	148.099204	252.204667	1003.555701	-106.592558	50.061116	515.268916	164.821094	221.894060	829.838946	184.158092	221.065992	707.836457	144.901790	159.075770	712.526461	195.682625	337.853979	533.540527	-120.736991	311.668747	859.108402	-121.452845	348.064223	751.143112	-63.647354	327.072169	734.959881	-144.729650	-136.938873	124.564053	141.753668	11.566058	302.172548	133.603652	-59.488990	217.331993	71.559056	-67.508069	208.669727	151.852570	434.695200	105.793159	-103.955098	436.229912	343.870937	-84.072909	439.354634	226.542924	-33.720867	431.676885	223.450465	-114.653747	-222.077146	86.962731	85.854848	-1.688922	58.000502	41.186300	-6.194461	48.173914	116.823496	371.780614	51.963849	-55.076148	595.197724	103.351164	-26.904054	580.818931	92.321572	-116.362827	279.139723	1434.780554	28.060277	138.845582	1545.698688	35.714575	237.741201	1461.671659	225.712386	209.495048	1478.601230	-179.425521	
176	1.750000	-53.767225	999.322391	17.116090	260.549441	998.479563	147.560592	254.837517	1002.887789	-107.190916	51.595248	514.639656	164.649167	223.325201	829.214919	183.370491	222.905943	707.081531	144.412458	160.628577	711.842515	194.766487	341.159317	533.402248	-120.997015	314.973868	858.449236	-121.725459	350.847319	750.397487	-63.748626	330.196938	734.265425	-144.979497	-143.764321	127.661260	142.088717	8.630953	302.100255	133.730393	-64.222047	218.732553	71.758862	-72.592518	210.449221	152.106785	429.651155	104.299583	-103.875418	436.150733	341.861196	-83.198685	436.168403	224.321436	-33.118236	429.451018	221.621015	-114.166044	-229.599228	92.234358	86.064944	-10.335986	58.024872	41.544245	-15.574740	47.889980	116.465071	363.977555	53.588186	-55.698862	589.289130	95.691980	-25.377866	575.046612	85.356110	-115.006575	280.321285	1434.268508	26.171837	139.896544	1545.076789	33.215189	238.385847	1461.386855	223.664293	211.126034	1477.371672	-181.622344	
